<?xml version="1.0" encoding="UTF-8" standalone="no"?>
<!DOCTYPE svg PUBLIC "-//W3C//DTD SVG 1.1//EN" "http://www.w3.org/Graphics/SVG/1.1/DTD/svg11.dtd">
<svg width="100%" height="100%" viewBox="0 0 351 355" version="1.1" xmlns="http://www.w3.org/2000/svg" xmlns:xlink="http://www.w3.org/1999/xlink" xml:space="preserve" xmlns:serif="http://www.serif.com/" style="fill-rule:evenodd;clip-rule:evenodd;stroke-linejoin:round;stroke-miterlimit:2;">
    <g transform="matrix(0.00819995,0.999966,-0.999966,0.00819995,1042.44,-103.54)">
        <path d="M317.998,700.084C288.889,692.641 258.341,692.641 229.231,700.084C226.982,719.412 222.922,738.361 217.052,756.932C192.136,769.147 171.954,789.09 159.594,813.713C140.802,819.513 121.626,823.525 102.067,825.748C94.536,854.515 94.536,884.702 102.067,913.468C121.626,915.691 140.802,919.703 159.594,925.504C171.954,950.126 192.136,970.07 217.052,982.284C222.922,1000.86 226.982,1019.8 229.231,1039.13C258.341,1046.58 288.889,1046.58 317.998,1039.13C320.248,1019.8 324.308,1000.86 330.178,982.284C355.094,970.07 375.276,950.126 387.636,925.504C406.428,919.703 425.604,915.691 445.163,913.468C452.694,884.702 452.694,854.515 445.163,825.748C425.604,823.525 406.428,819.513 387.636,813.713C375.276,789.09 355.094,769.147 330.178,756.932C324.308,738.361 320.248,719.412 317.998,700.084ZM273.615,837.081C291.782,837.081 306.531,851.656 306.531,869.608C306.531,887.561 291.782,902.136 273.615,902.136C255.448,902.136 240.699,887.561 240.699,869.608C240.699,851.656 255.448,837.081 273.615,837.081Z"/>
    </g>
</svg>
